<svg width="19" height="19" viewBox="0 0 19 19" fill="none" xmlns="http://www.w3.org/2000/svg">
<path d="M16.8269 9.377L10.0347 2.58833L9.57942 2.13305C9.47569 2.03 9.3354 1.97217 9.18918 1.97217C9.04297 1.97217 8.90268 2.03 8.79895 2.13305L1.55149 9.377C1.4452 9.48288 1.36119 9.60898 1.30443 9.74785C1.24767 9.88673 1.21931 10.0356 1.22102 10.1856C1.22805 10.8043 1.74309 11.2983 2.36184 11.2983H3.10891V17.0235H15.2695V11.2983H16.0323C16.3329 11.2983 16.6159 11.1805 16.8286 10.9678C16.9334 10.8634 17.0163 10.7393 17.0728 10.6026C17.1292 10.4659 17.1579 10.3194 17.1573 10.1715C17.1573 9.8727 17.0396 9.58969 16.8269 9.377ZM10.1736 15.7579H8.20481V12.1719H10.1736V15.7579ZM14.0038 10.0327V15.7579H11.2986V11.75C11.2986 11.3616 10.9839 11.0469 10.5954 11.0469H7.78293C7.39446 11.0469 7.07981 11.3616 7.07981 11.75V15.7579H4.37454V10.0327H2.68704L9.19094 3.53403L9.597 3.94008L15.6931 10.0327H14.0038Z" fill="white"/>
</svg>
