<svg width="25" height="26" viewBox="0 0 25 26" fill="none" xmlns="http://www.w3.org/2000/svg">
<path d="M17.2604 23.4166C17.5371 23.4182 17.8113 23.3646 18.067 23.2591C18.3228 23.1536 18.555 22.9982 18.75 22.802L21.5729 19.9791C21.7669 19.7839 21.8758 19.5199 21.8758 19.2447C21.8758 18.9695 21.7669 18.7055 21.5729 18.5103L17.4062 14.3437C17.2111 14.1496 16.9471 14.0407 16.6719 14.0407C16.3967 14.0407 16.1327 14.1496 15.9375 14.3437L14.2708 15.9999C13.1169 15.6922 12.0482 15.1258 11.1458 14.3437C10.3657 13.4398 9.79961 12.3716 9.48958 11.2187L11.1458 9.55199C11.3398 9.35682 11.4487 9.0928 11.4487 8.81761C11.4487 8.54242 11.3398 8.27841 11.1458 8.08324L6.97917 3.91657C6.784 3.72256 6.51998 3.61366 6.24479 3.61366C5.9696 3.61366 5.70558 3.72256 5.51042 3.91657L2.69792 6.7499C2.5017 6.94495 2.3463 7.17712 2.24078 7.43287C2.13526 7.68862 2.08173 7.96283 2.08333 8.23949C2.17784 12.2419 3.77716 16.0617 6.5625 18.9374C9.43825 21.7227 13.258 23.3221 17.2604 23.4166ZM6.25 6.13532L8.94792 8.83324L7.60417 10.177C7.4769 10.2962 7.38159 10.4455 7.32699 10.6111C7.27239 10.7767 7.26025 10.9534 7.29167 11.1249C7.68101 12.8649 8.50532 14.4777 9.6875 15.8124C11.0212 16.9961 12.6344 17.8206 14.375 18.2082C14.5439 18.2436 14.719 18.2363 14.8845 18.1872C15.0499 18.1382 15.2006 18.0487 15.3229 17.927L16.6667 16.552L19.3646 19.2499L17.2812 21.3332C13.8268 21.2443 10.5307 19.8657 8.04167 17.4687C5.63845 14.9786 4.25584 11.6781 4.16667 8.21865L6.25 6.13532ZM20.8333 11.9582H22.9167C22.9437 10.7197 22.7196 9.4885 22.2581 8.33887C21.7965 7.18923 21.1069 6.14495 20.2309 5.26896C19.3549 4.39297 18.3107 3.70341 17.161 3.24183C16.0114 2.78026 14.7802 2.55622 13.5417 2.58324V4.66657C14.5082 4.63313 15.4713 4.79887 16.3711 5.15348C17.2709 5.50809 18.0882 6.04399 18.772 6.72786C19.4559 7.41174 19.9918 8.22897 20.3464 9.12876C20.701 10.0286 20.8668 10.9917 20.8333 11.9582Z" fill="#DD241F"/>
<path d="M13.5417 8.83333C15.7292 8.83333 16.6667 9.77083 16.6667 11.9583H18.75C18.75 8.60417 16.8958 6.75 13.5417 6.75V8.83333Z" fill="#DD241F"/>
</svg>
